# xmcd
#
# Track frame offsets: 
#        150
#        19337
#        33445
#        45769
#        56689
#        67512
#        86036
#        96353
#        112094
#        123484
#        133527
#        141476
#        148831
#        161940
#        173275
#        186395
#        210742
#        220175
#        241855
#        251763
#
# Disc length: 3545 seconds
#
# Revision: 7
# Processed by: cddbd v1.5.2PL0 Copyright (c) Steve Scherf et al.
# Submitted via: ExactAudioCopy v0.95a5
#
DISCID=270dd714
DTITLE=Various 20 Country greats vol. 02 - Country Gold 02
DYEAR=1999
DGENRE=Country
TTITLE0=Kenny Rogers - Coward Of The Country
TTITLE1=Phil Carmen - Born A Rider
TTITLE2=Charlie Rich - Behind Closed Doors
TTITLE3=Dolly Parton - Honky Tonk Angel
TTITLE4=Freddy Fender - She's About A Mover
TTITLE5=Phil Carmen - No Chance Romance
TTITLE6=Dave Dudley - Six Days On The Road
TTITLE7=Boxcar Willie - Red River
TTITLE8=Freddy Fender - I'm Leaving It All Up To You
TTITLE9=Bobby Bare - Help Me Make It Through The Night
TTITLE10=Burl Ives - Big Rock Candy Mountain
TTITLE11=Sir Douglas Quintett - Cotton Eyed Joe
TTITLE12=Hank Williams - Hey Good Looking
TTITLE13=Loretta Lynn - Love Is The Foundation
TTITLE14=Boxcar Willie - San Antonio Rose
TTITLE15=Phil Carmen - Moonshine Still
TTITLE16=Merl Travis - Sixteen Tons
TTITLE17=Phil Carmen - Just Like A Woman
TTITLE18=Hank Williams - Move It On Over
TTITLE19=Loretta Lynn - Coal Miner's Daughter
EXTD=
EXTT0=
EXTT1=
EXTT2=
EXTT3=
EXTT4=
EXTT5=
EXTT6=
EXTT7=
EXTT8=
EXTT9=
EXTT10=
EXTT11=
EXTT12=
EXTT13=
EXTT14=
EXTT15=
EXTT16=
EXTT17=
EXTT18=
EXTT19=
PLAYORDER=
